<svg width="34" height="16" viewBox="0 0 34 16" fill="none" xmlns="http://www.w3.org/2000/svg">
<path d="M10.3922 0.985504C11.4824 1.04833 12.378 1.47244 13.0788 2.25782C13.7797 3.0275 14.2858 3.90713 14.5973 4.89671C14.9088 5.88629 15.0646 6.89944 15.0646 7.93614C15.0646 8.97285 14.9088 9.98599 14.5973 10.9756C14.3014 11.9652 13.7952 12.8526 13.0788 13.638C12.378 14.4077 11.4824 14.824 10.3922 14.8868H1.79512C1.37461 14.8711 1.0164 14.7219 0.720483 14.4391C0.440143 14.1407 0.292186 13.7794 0.276611 13.3553V7.51204C0.292186 7.07222 0.455718 6.71095 0.767207 6.42821C1.0787 6.12976 1.45248 5.98054 1.88857 5.98054C2.30908 5.99625 2.66729 6.15332 2.96321 6.45177C3.25912 6.73451 3.41486 7.08793 3.43044 7.51204V11.0934C3.43044 11.5175 3.64848 11.7295 4.08457 11.7295H9.59792C10.1898 11.6981 10.6803 11.4704 11.0697 11.0463C11.4591 10.6222 11.7394 10.1431 11.9107 9.60901C12.0976 9.05924 12.1911 8.50162 12.1911 7.93614C12.1911 7.37067 12.0976 6.8209 11.9107 6.28684C11.7394 5.73707 11.4591 5.25013 11.0697 4.82603C10.6803 4.40192 10.1898 4.17416 9.59792 4.14274H1.79512C0.860653 4.06421 0.354484 3.55371 0.276611 2.61125C0.276611 2.17143 0.416781 1.79445 0.697122 1.4803C0.993036 1.16614 1.35904 1.00121 1.79512 0.985504H10.3922Z" fill="#570DF8"/>
<path d="M19.2229 0.608521C19.6434 0.624228 20.0017 0.781305 20.2976 1.07975C20.5935 1.36249 20.7492 1.71591 20.7648 2.14002V13.6851C20.6714 14.6276 20.1574 15.1381 19.2229 15.2166C18.7869 15.2166 18.4053 15.0753 18.0782 14.7925C17.7667 14.4941 17.611 14.125 17.611 13.6851V2.14002C17.6266 1.7002 17.7901 1.33893 18.1016 1.05619C18.4131 0.757743 18.7869 0.608521 19.2229 0.608521ZM23.2178 4.75534C24.2613 4.0485 25.6708 3.3338 27.4463 2.61125L31.2776 0.961943C31.4489 0.883405 31.6358 0.836282 31.8382 0.820574C32.2743 0.789159 32.6481 0.922674 32.9596 1.22112C33.2711 1.50386 33.4268 1.87299 33.4268 2.32851C33.4268 2.84686 33.3178 3.2317 33.0998 3.48302C32.8973 3.71864 32.6325 3.91498 32.3055 4.07206L29.0348 5.32082C28.3963 5.57214 27.7889 5.82346 27.2126 6.07479C26.652 6.3104 26.138 6.58529 25.6708 6.89944C25.2035 7.18218 24.9543 7.50418 24.9232 7.86546C24.9543 8.21103 25.2035 8.53303 25.6708 8.83148C26.138 9.14563 26.652 9.42837 27.2126 9.67969C27.7889 9.91531 28.3963 10.1588 29.0348 10.4101L32.6793 11.7531C33.0063 11.9102 33.2711 12.1144 33.4736 12.3657C33.6916 12.6013 33.8006 12.9783 33.8006 13.4967C33.8006 13.9522 33.6449 14.3292 33.3334 14.6276C33.0219 14.9103 32.6481 15.036 32.212 15.0046C32.0096 14.9889 31.8227 14.9418 31.6514 14.8632L27.4463 13.1197C25.6708 12.3971 24.2535 11.6824 23.1944 10.9756C22.1509 10.253 21.6214 9.21632 21.6058 7.86546C21.6214 6.5146 22.1587 5.4779 23.2178 4.75534Z" fill="#570DF8"/>
</svg>
