<svg width="13" height="40" viewBox="0 0 13 40" fill="none" xmlns="http://www.w3.org/2000/svg">
<path d="M6.80394 0.185802C4.54493 0.603809 3.6709 1.40499 3.07925 3.59952C2.98513 3.90141 2.891 6.42105 2.83722 9.57932L2.75654 15.0366L2.40693 15.6869C2.00353 16.43 1.26397 17.1034 0.524414 17.3821L0 17.5795V19.4953V21.4228L0.779898 21.7828C1.60014 22.1543 2.27246 22.8626 2.56829 23.6638C2.67586 23.9541 2.76998 25.8932 2.82377 29.7249C2.90445 34.172 2.97168 35.5189 3.13304 36.1227C3.4692 37.3883 4.11464 38.294 5.029 38.7817C5.95681 39.2693 6.68292 39.3855 9.45291 39.4435L12.1019 39.5132V37.5973V35.6815L11.0396 35.6234C9.57393 35.5537 8.80747 35.2054 8.33685 34.4274L8.00068 33.8585L7.92 28.6799C7.83932 23.0136 7.82588 22.8858 6.99219 21.806C6.60224 21.3067 5.84924 20.7378 4.66594 20.0643L4.16842 19.774L5.4055 18.9728C6.68292 18.1484 7.38214 17.4285 7.67797 16.6274C7.78554 16.3371 7.86622 14.5025 7.92 10.9146L8.00068 5.63149L8.33685 5.05093C8.80747 4.23814 9.46635 3.93624 10.9724 3.85497L12.1019 3.79691V1.90427V2.28882e-05L9.92354 0.0116348C8.53854 0.0116348 7.39559 0.0813026 6.80394 0.185802Z" fill="#570DF8"/>
</svg>
