<svg width="74" height="42" viewBox="0 0 74 42" fill="none" xmlns="http://www.w3.org/2000/svg">
<path d="M30.3922 13.9855C31.4824 14.0483 32.378 14.4724 33.0788 15.2578C33.7797 16.0275 34.2858 16.9071 34.5973 17.8967C34.9088 18.8863 35.0646 19.8994 35.0646 20.9361C35.0646 21.9728 34.9088 22.986 34.5973 23.9756C34.3014 24.9652 33.7952 25.8526 33.0788 26.638C32.378 27.4077 31.4824 27.824 30.3922 27.8868H21.7951C21.3746 27.8711 21.0164 27.7219 20.7205 27.4391C20.4401 27.1407 20.2922 26.7794 20.2766 26.3553V20.512C20.2922 20.0722 20.4557 19.7109 20.7672 19.4282C21.0787 19.1298 21.4525 18.9805 21.8886 18.9805C22.3091 18.9962 22.6673 19.1533 22.9632 19.4518C23.2591 19.7345 23.4149 20.0879 23.4304 20.512V24.0934C23.4304 24.5175 23.6485 24.7295 24.0846 24.7295H29.5979C30.1898 24.6981 30.6803 24.4704 31.0697 24.0463C31.4591 23.6222 31.7394 23.1431 31.9107 22.609C32.0976 22.0592 32.1911 21.5016 32.1911 20.9361C32.1911 20.3707 32.0976 19.8209 31.9107 19.2868C31.7394 18.7371 31.4591 18.2501 31.0697 17.826C30.6803 17.4019 30.1898 17.1742 29.5979 17.1427H21.7951C20.8607 17.0642 20.3545 16.5537 20.2766 15.6112C20.2766 15.1714 20.4168 14.7944 20.6971 14.4803C20.993 14.1661 21.359 14.0012 21.7951 13.9855H30.3922Z" fill="#570DF8"/>
<path d="M39.2229 13.6085C39.6434 13.6242 40.0017 13.7813 40.2976 14.0798C40.5935 14.3625 40.7492 14.7159 40.7648 15.14V26.6851C40.6714 27.6276 40.1574 28.1381 39.2229 28.2166C38.7869 28.2166 38.4053 28.0753 38.0782 27.7925C37.7667 27.4941 37.611 27.125 37.611 26.6851V15.14C37.6266 14.7002 37.7901 14.3389 38.1016 14.0562C38.4131 13.7577 38.7869 13.6085 39.2229 13.6085ZM43.2178 17.7553C44.2613 17.0485 45.6708 16.3338 47.4463 15.6112L51.2776 13.9619C51.4489 13.8834 51.6358 13.8363 51.8382 13.8206C52.2743 13.7892 52.6481 13.9227 52.9596 14.2211C53.2711 14.5039 53.4268 14.873 53.4268 15.3285C53.4268 15.8469 53.3178 16.2317 53.0998 16.483C52.8973 16.7186 52.6325 16.915 52.3055 17.0721L49.0348 18.3208C48.3963 18.5721 47.7889 18.8235 47.2126 19.0748C46.652 19.3104 46.138 19.5853 45.6708 19.8994C45.2035 20.1822 44.9543 20.5042 44.9232 20.8655C44.9543 21.211 45.2035 21.533 45.6708 21.8315C46.138 22.1456 46.652 22.4284 47.2126 22.6797C47.7889 22.9153 48.3963 23.1588 49.0348 23.4101L52.6793 24.7531C53.0063 24.9102 53.2711 25.1144 53.4736 25.3657C53.6916 25.6013 53.8006 25.9783 53.8006 26.4967C53.8006 26.9522 53.6449 27.3292 53.3334 27.6276C53.0219 27.9103 52.6481 28.036 52.212 28.0046C52.0096 27.9889 51.8227 27.9418 51.6514 27.8632L47.4463 26.1197C45.6708 25.3971 44.2535 24.6824 43.1944 23.9756C42.1509 23.253 41.6214 22.2163 41.6058 20.8655C41.6214 19.5146 42.1587 18.4779 43.2178 17.7553Z" fill="#570DF8"/>
<path d="M61 3.91475V5.81789L62.1295 5.87591C63.6355 5.95714 64.2944 6.25885 64.765 7.07117L65.1012 7.65139L65.1819 12.9314C65.2357 16.5172 65.3163 18.3507 65.4239 18.6408C65.7197 19.4415 66.419 20.161 67.6964 20.9849L68.9335 21.7856L68.4359 22.0757C67.2526 22.7488 66.4996 23.3174 66.1097 23.8164C65.276 24.8956 65.2626 25.0233 65.1819 30.6862L65.1012 35.8618L64.765 36.4304C64.2944 37.2079 63.5279 37.5561 62.0623 37.6257L61 37.6837V39.5984V41.5132L63.6624 41.4436C66.419 41.3855 67.1451 41.2695 68.0729 40.7821C68.9872 40.2947 69.6327 39.3896 69.9688 38.1247C70.1302 37.5213 70.1974 36.1751 70.2781 31.7306C70.3319 27.9012 70.426 25.9632 70.5336 25.6731C70.8294 24.8724 71.5017 24.1645 72.322 23.7932L73.1019 23.4334V21.5071V19.5924L72.5775 19.3951C71.8379 19.1166 71.0983 18.4435 70.695 17.7008L70.3453 17.051L70.2512 11.5969C70.2109 8.59135 70.1167 5.93393 70.0361 5.67863C69.5923 4.07722 69.0948 3.32293 68.1132 2.80073C67.0644 2.24371 66.271 2.11607 63.5279 2.05804L61 2.00002V3.91475Z" fill="#570DF8"/>
<path d="M6.80394 1.1858C4.54493 1.60381 3.6709 2.40499 3.07925 4.59952C2.98513 4.90141 2.891 7.42105 2.83722 10.5793L2.75654 16.0366L2.40693 16.6869C2.00353 17.43 1.26397 18.1034 0.524414 18.3821L0 18.5795V20.4953V22.4228L0.779898 22.7828C1.60014 23.1543 2.27246 23.8626 2.56829 24.6638C2.67586 24.9541 2.76998 26.8932 2.82377 30.7249C2.90445 35.172 2.97168 36.5189 3.13304 37.1227C3.4692 38.3883 4.11464 39.294 5.029 39.7817C5.95681 40.2693 6.68292 40.3855 9.45291 40.4435L12.1019 40.5132V38.5973V36.6815L11.0396 36.6234C9.57393 36.5537 8.80747 36.2054 8.33685 35.4274L8.00068 34.8585L7.92 29.6799C7.83932 24.0136 7.82588 23.8858 6.99219 22.806C6.60224 22.3067 5.84924 21.7378 4.66594 21.0643L4.16842 20.774L5.4055 19.9728C6.68292 19.1484 7.38214 18.4285 7.67797 17.6274C7.78554 17.3371 7.86622 15.5025 7.92 11.9146L8.00068 6.63149L8.33685 6.05093C8.80747 5.23814 9.46635 4.93624 10.9724 4.85497L12.1019 4.79691V2.90427V1.00002L9.92354 1.01163C8.53854 1.01163 7.39559 1.0813 6.80394 1.1858Z" fill="#570DF8"/>
</svg>
