<svg width="13" height="40" viewBox="0 0 13 40" fill="none" xmlns="http://www.w3.org/2000/svg">
<path d="M0 1.91475V3.81789L1.12951 3.87591C2.63552 3.95714 3.2944 4.25885 3.76503 5.07117L4.10119 5.65139L4.18187 10.9314C4.23566 14.5172 4.31634 16.3507 4.42391 16.6408C4.71973 17.4415 5.41895 18.161 6.69637 18.9849L7.93345 19.7856L7.43593 20.0757C6.25264 20.7488 5.49963 21.3174 5.10968 21.8164C4.276 22.8956 4.26255 23.0233 4.18187 28.6862L4.10119 33.8618L3.76503 34.4304C3.2944 35.2079 2.52795 35.5561 1.06228 35.6257L0 35.6837V37.5984V39.5132L2.66241 39.4436C5.41895 39.3855 6.14507 39.2695 7.07288 38.7821C7.98724 38.2947 8.63267 37.3896 8.96884 36.1247C9.1302 35.5213 9.19743 34.1751 9.27811 29.7306C9.33189 25.9012 9.42602 23.9632 9.53359 23.6731C9.82942 22.8724 10.5017 22.1645 11.322 21.7932L12.1019 21.4334V19.5071V17.5924L11.5775 17.3951C10.8379 17.1166 10.0983 16.4435 9.69495 15.7008L9.34534 15.051L9.25121 9.5969C9.21087 6.59135 9.11675 3.93393 9.03607 3.67863C8.59233 2.07722 8.09481 1.32293 7.11322 0.800728C6.06439 0.243713 5.27104 0.116066 2.52795 0.0580406L0 1.90735e-05V1.91475Z" fill="#570DF8"/>
</svg>
